<svg width="33" height="32" viewBox="0 0 33 32" fill="none" xmlns="http://www.w3.org/2000/svg">
<path fill-rule="evenodd" clip-rule="evenodd" d="M32.875 16C32.875 7.16344 25.7116 0 16.875 0C8.03844 0 0.875 7.16344 0.875 16C0.875 24.8366 8.03844 32 16.875 32H32.875V16Z" fill="#FC2E90" fill-opacity="0.3"/>
<path fill-rule="evenodd" clip-rule="evenodd" d="M26.2083 16.0396C26.2084 16.0265 26.2084 16.0133 26.2084 16.0001C26.2084 10.8454 22.0297 6.66675 16.8751 6.66675C11.7204 6.66675 7.54175 10.8454 7.54175 16.0001C7.54175 21.1547 11.7204 25.3334 16.8751 25.3334C16.8883 25.3334 16.9015 25.3334 16.9146 25.3333H26.2083V16.0396Z" fill="#FC2E90"/>
<path fill-rule="evenodd" clip-rule="evenodd" d="M20.875 16C20.875 13.7909 19.0841 12 16.875 12C14.6659 12 12.875 13.7909 12.875 16C12.875 18.2091 14.6659 20 16.875 20H20.875V16Z" fill="white"/>
</svg>
