<svg width="117" height="48" viewBox="0 0 117 48" fill="none" xmlns="http://www.w3.org/2000/svg">
<rect width="116.397" height="48" rx="15" fill="white"/>
<path d="M18.072 31.2C17.088 30.672 16.32 29.928 15.792 28.968C15.264 28.008 15 26.904 15 25.656C15 24.408 15.264 23.304 15.792 22.344C16.32 21.384 17.088 20.664 18.072 20.136C19.056 19.608 20.208 19.344 21.504 19.344C22.8 19.344 23.928 19.608 24.912 20.136C25.896 20.664 26.664 21.384 27.192 22.344C27.72 23.304 28.008 24.408 28.008 25.656C28.008 26.928 27.72 28.032 27.192 28.992C26.664 29.952 25.896 30.672 24.912 31.2C23.928 31.728 22.8 31.968 21.504 31.968C20.208 31.968 19.056 31.728 18.072 31.2ZM23.736 28.224C24.288 27.576 24.576 26.712 24.576 25.656C24.576 24.6 24.288 23.76 23.736 23.088C23.184 22.44 22.44 22.104 21.504 22.104C20.568 22.104 19.824 22.44 19.272 23.088C18.72 23.76 18.456 24.6 18.456 25.656C18.456 26.712 18.72 27.576 19.272 28.224C19.824 28.896 20.568 29.208 21.504 29.208C22.44 29.208 23.184 28.896 23.736 28.224Z" fill="black"/>
<path d="M31.0958 22.344H29.0557V19.488H31.0958V16.032H34.4797V19.488H37.2878V22.344H34.4797V27.744C34.4797 28.176 34.5518 28.488 34.7438 28.68C34.9358 28.872 35.2478 28.968 35.6798 28.968H37.4318V31.824H34.6238C32.2718 31.824 31.0958 30.648 31.0958 28.296V22.344Z" fill="black"/>
<path d="M38.1384 19.488H41.7624L44.7384 28.368L47.6664 19.488H51.2184L46.7784 31.824H42.5784L38.1384 19.488Z" fill="black"/>
<path d="M52.6455 22.344C53.1735 21.384 53.8935 20.664 54.8295 20.136C55.7655 19.608 56.8455 19.344 58.0935 19.344C59.3415 19.344 60.4215 19.608 61.3815 20.088C62.3415 20.568 63.0855 21.264 63.6135 22.152C64.1415 23.04 64.4295 24.072 64.4535 25.272C64.4535 25.704 64.4055 26.088 64.3575 26.424H55.4055V26.52C55.4775 27.432 55.7655 28.128 56.2695 28.632C56.7495 29.16 57.4455 29.4 58.3095 29.4C58.9815 29.4 59.5575 29.256 60.0135 28.968C60.4695 28.68 60.7815 28.224 60.9255 27.648H64.2615C64.1175 28.464 63.8055 29.208 63.3255 29.856C62.8215 30.528 62.1735 31.032 61.3575 31.416C60.5415 31.8 59.6055 31.968 58.5495 31.968C57.1575 31.968 55.9815 31.728 54.9735 31.2C53.9655 30.696 53.1975 29.976 52.6695 29.016C52.1415 28.056 51.8775 26.952 51.8775 25.68C51.8775 24.408 52.1175 23.304 52.6455 22.344ZM61.0695 24.216C60.9495 23.472 60.6375 22.896 60.1335 22.488C59.6295 22.08 59.0055 21.864 58.2375 21.864C57.4935 21.864 56.8695 22.08 56.3655 22.512C55.8615 22.944 55.5735 23.496 55.4775 24.216H61.0695Z" fill="black"/>
<path d="M67.5279 22.344H65.4879V19.488H67.5279V16.032H70.9119V19.488H73.7199V22.344H70.9119V27.744C70.9119 28.176 70.9839 28.488 71.1759 28.68C71.3679 28.872 71.6799 28.968 72.1119 28.968H73.8639V31.824H71.0559C68.7039 31.824 67.5279 30.648 67.5279 28.296V22.344Z" fill="black"/>
<path d="M77.864 15.6001H81.464V32.4001H77.864V15.6001Z" fill="#5838FC"/>
<path d="M101.397 29.3521V32.4001H99.6693C98.9973 32.4001 98.4693 32.3281 98.0853 32.1361C97.7013 31.9681 97.3653 31.6801 97.0533 31.2721C95.7093 32.1361 94.1733 32.5441 92.4453 32.5441C90.8133 32.5441 89.3733 32.1841 88.1253 31.4401C86.8533 30.7201 85.8693 29.6881 85.1733 28.3921C84.4533 27.0961 84.1173 25.6321 84.1173 24.0001C84.1173 22.3921 84.4533 20.9281 85.1733 19.6321C85.8693 18.3361 86.8533 17.3041 88.1253 16.5601C89.3733 15.8401 90.8133 15.4561 92.4453 15.4561C94.0533 15.4561 95.4933 15.8401 96.7653 16.5601C98.0133 17.3041 98.9973 18.3361 99.7173 19.6321C100.413 20.9281 100.773 22.3921 100.773 24.0001C100.773 26.0161 100.245 27.7441 99.1893 29.2321C99.3333 29.3281 99.5253 29.3521 99.7413 29.3521H101.397ZM88.3653 26.8321C88.7493 27.6721 89.2773 28.3201 89.9973 28.8001C90.6933 29.2801 91.5093 29.4961 92.4453 29.4961C93.4053 29.4961 94.2453 29.2321 95.0133 28.7041L94.7733 28.4161C94.5813 28.1761 94.3893 27.9841 94.2213 27.8641C94.0293 27.7441 93.8133 27.6721 93.5733 27.6721H92.0133V24.6241H93.8373C94.4613 24.6241 94.9653 24.7201 95.3013 24.9121C95.6373 25.1041 95.9733 25.4161 96.3093 25.8481L96.6933 26.3521C96.9333 25.6561 97.0773 24.8641 97.0773 24.0001C97.0773 22.9441 96.8853 22.0081 96.5013 21.1681C96.1173 20.3521 95.5653 19.7041 94.8693 19.2241C94.1493 18.7441 93.3573 18.5041 92.4453 18.5041C91.5093 18.5041 90.6933 18.7441 89.9973 19.2241C89.2773 19.7041 88.7493 20.3521 88.3653 21.1681C87.9813 22.0081 87.7893 22.9441 87.7893 24.0001C87.7893 25.0561 87.9813 26.0161 88.3653 26.8321Z" fill="#5838FC"/>
</svg>
